<?xml version="1.0" encoding="utf-8"?>
<!-- Generator: Adobe Illustrator 24.1.2, SVG Export Plug-In . SVG Version: 6.00 Build 0)  -->
<svg version="1.1" id="Layer_1" xmlns="http://www.w3.org/2000/svg" xmlns:xlink="http://www.w3.org/1999/xlink" x="0px" y="0px"
	 viewBox="0 0 300 300" style="enable-background:new 0 0 300 300;" xml:space="preserve">
<style type="text/css">
	.st0{fill:#E72D4F;}
</style>
<g id="Group_9" transform="translate(-90 -696)">
	<path id="Rectangle_13" class="st0" d="M209.62,808.03h19.29c4.19,0,7.59,3.4,7.59,7.59v19.29c0,4.19-3.4,7.59-7.59,7.59h-19.29
		c-4.19,0-7.59-3.4-7.59-7.59v-19.29C202.03,811.43,205.43,808.03,209.62,808.03z"/>
	<path id="Rectangle_14" class="st0" d="M209.62,849.49h19.29c4.19,0,7.59,3.4,7.59,7.59v19.29c0,4.19-3.4,7.59-7.59,7.59h-19.29
		c-4.19,0-7.59-3.4-7.59-7.59v-19.29C202.03,852.89,205.43,849.49,209.62,849.49z"/>
	<path id="Rectangle_15" class="st0" d="M251.09,808.03h19.29c4.19,0,7.59,3.4,7.59,7.59v19.29c0,4.19-3.4,7.59-7.59,7.59h-19.29
		c-4.19,0-7.59-3.4-7.59-7.59v-19.29C243.49,811.43,246.89,808.03,251.09,808.03z"/>
	<circle id="Ellipse_4" class="st0" cx="260.73" cy="866.73" r="17.24"/>
</g>
</svg>
